
<svg xmlns="http://www.w3.org/2000/svg"
     class="svg-snoweb svg-theme-dark"
     x="0"
     y="0"
     width="100%"
     height="100%"
     viewBox="0 0 100 100"
     preserveAspectRatio="xMidYMid meet"
>
<defs>
    <style>
        
            
            
            
        

        .svg-fill-primary {
            fill: #7b8a9a;
        }

        .svg-fill-secondary {
            fill: #65CDAE;
        }

        .svg-fill-tertiary {
            fill: #37A987;
        }

        .svg-stroke-primary {
            stroke: #7b8a9a;
        }

        .svg-stroke-secondary {
            stroke: #65CDAE;
        }

        .svg-stroke-tertiary {
            stroke: #37A987;
        }
    </style>
</defs>
    <path class="svg-fill-primary"
      d="M100,10.71V89.29A10.73,10.73,0,0,1,89.29,100H69.81V64.85H81.46L83.68,50.3H69.85V40.85c0-4,1.94-7.85,8.15-7.85h6.27V20.65a76.54,76.54,0,0,0-11.2-1c-11.42,0-18.88,7-18.88,19.57V50.3H41.49V64.85h12.7V100H10.71A10.73,10.73,0,0,1,0,89.29V10.71A10.73,10.73,0,0,1,10.71,0H89.29A10.73,10.73,0,0,1,100,10.71Z">
</path>

</svg>