
<svg xmlns="http://www.w3.org/2000/svg"
     class="svg-snoweb svg-theme-dark"
     x="0"
     y="0"
     width="100%"
     height="100%"
     viewBox="0 0 100 100"
     preserveAspectRatio="xMidYMid meet"
>
<defs>
    <style>
        
            
            
            
        

        .svg-fill-primary {
            fill: #7b8a9a;
        }

        .svg-fill-secondary {
            fill: #65CDAE;
        }

        .svg-fill-tertiary {
            fill: #37A987;
        }

        .svg-stroke-primary {
            stroke: #7b8a9a;
        }

        .svg-stroke-secondary {
            stroke: #65CDAE;
        }

        .svg-stroke-tertiary {
            stroke: #37A987;
        }
    </style>
</defs>
    <path class="svg-fill-primary"
      d="M92.86,0H7.12A7.17,7.17,0,0,0,0,7.21V92.79A7.17,7.17,0,0,0,7.12,100H92.86A7.19,7.19,0,0,0,100,92.79V7.21A7.19,7.19,0,0,0,92.86,0ZM30.22,85.71H15.4V38H30.25V85.71ZM22.81,31.47a8.59,8.59,0,1,1,8.6-8.59A8.6,8.6,0,0,1,22.81,31.47Zm63,54.24H71V62.5c0-5.54-.11-12.66-7.7-12.66s-8.91,6-8.91,12.26V85.71H39.53V38H53.75v6.52H54c2-3.75,6.83-7.7,14-7.7,15,0,17.79,9.89,17.79,22.74Z">
</path>

</svg>